<svg width="22" height="24" viewBox="0 0 22 24" fill="none" xmlns="http://www.w3.org/2000/svg">
<path d="M8.37096 2.29041e-05C12.9941 2.29041e-05 16.742 3.99769 16.742 8.92904C16.742 13.8604 12.9941 17.8581 8.371 17.8581C3.7478 17.8581 0 13.8604 0 8.92908C0.0055 4.00005 3.75003 0.00586666 8.37046 0H8.371L8.37096 2.29041e-05ZM8.37096 15.7912C11.924 15.7912 14.8042 12.7189 14.8042 8.92904C14.8042 5.13915 11.924 2.06694 8.37096 2.06694C4.81798 2.06694 1.93772 5.13922 1.93772 8.9291C1.94212 12.717 4.81976 15.7865 8.37057 15.7912H8.371L8.37096 15.7912ZM20.6271 23.4667L12.7725 15.0854L14.1425 13.6241L22 22.0023L20.6271 23.4667Z" fill="#FF4256"/>
</svg>
