<svg width="97" height="24" viewBox="0 0 97 24" fill="none" xmlns="http://www.w3.org/2000/svg">
<rect x="0.5" y="0.5" width="96" height="23" rx="11.5" fill="white" stroke="#FF4256"/>
<path d="M25.2266 5.95312V18.1074H24.1465V5.95312H25.2266ZM21.6309 7.2793C21.6172 10.7793 19.9902 13.8691 15.916 15.8242L15.3281 14.9492C18.6162 13.3906 20.291 11.0596 20.5371 8.1543H15.8887V7.2793H21.6309ZM30.1003 6.44531V7.99023H36.1159V6.44531H37.1823V11.2988H33.6277V12.5977H38.6316V13.4863H27.5573V12.5977H32.5612V11.2988H29.0339V6.44531H30.1003ZM30.1003 10.4375H36.1159V8.83789H30.1003V10.4375ZM37.4011 16.9453V17.8477H28.9929V14.457H30.073V16.9453H37.4011ZM45.2072 7.11523V10.082H47.8459V7.11523H48.8439V15.0723H44.1818V7.11523H45.2072ZM45.2072 14.1836H47.8459V10.957H45.2072V14.1836ZM54.1486 5.95312V18.1074H53.1095V11.668H51.4142V17.4922H50.3888V6.21289H51.4142V10.7793H53.1095V5.95312H54.1486ZM62.1669 10.2051V11.9961H67.1845V12.8711H56.1102V11.9961H61.1141V10.2051H62.1669ZM62.1805 6.71875C62.1805 8.33203 64.368 9.68555 66.5145 9.98633L66.077 10.8477C64.2313 10.5264 62.4061 9.54883 61.6473 8.14062C60.8817 9.55566 59.0497 10.5264 57.1903 10.8477L56.7802 9.98633C58.9266 9.68555 61.1005 8.33203 61.1005 6.71875V6.14453H62.1805V6.71875ZM61.6473 13.8828C64.2587 13.8828 65.8173 14.6348 65.8309 15.9883C65.8173 17.3418 64.2587 18.0801 61.6473 18.0801C59.0087 18.0801 57.4501 17.3418 57.4501 15.9883C57.4501 14.6348 59.0087 13.8828 61.6473 13.8828ZM61.6473 14.7305C59.6786 14.7305 58.5302 15.1816 58.5438 15.9883C58.5302 16.7812 59.6786 17.2461 61.6473 17.2461C63.5887 17.2461 64.7509 16.7812 64.7509 15.9883C64.7509 15.1816 63.5887 14.7305 61.6473 14.7305ZM72.8375 9.68555C72.8375 11.75 74.3414 13.8418 76.1324 14.6211L75.5309 15.4688C74.109 14.8193 72.8785 13.418 72.318 11.7363C71.7438 13.5205 70.5201 15.0723 69.1324 15.7695L68.4898 14.9219C70.2262 14.0879 71.7438 11.791 71.7574 9.68555V8.09961H68.8863V7.21094H75.7359V8.09961H72.8375V9.68555ZM78.5113 5.95312V18.1074H77.4313V5.95312H78.5113Z" fill="#FF4256"/>
</svg>
