<svg width="97" height="40" viewBox="0 0 97 40" fill="none" xmlns="http://www.w3.org/2000/svg">
<rect x="0.5" y="0.5" width="96" height="39" rx="19.5" fill="#F6F6F6" stroke="#E3E3E3"/>
<path d="M36.7949 14.6719C36.7793 16.6094 38.3418 18.375 40.3105 19.0625L39.7793 19.8594C38.2168 19.2734 36.9277 18.0547 36.3418 16.5312C35.7637 18.2188 34.459 19.5156 32.8262 20.1562L32.3105 19.3594C34.3105 18.625 35.8262 16.7969 35.8262 14.625V13.125H36.7949V14.6719ZM43.0293 12.4375V16.1719H45.1543V17.0312H43.0293V20.7969H42.0449V12.4375H43.0293ZM43.0293 21.5156V26.2188H42.0449V22.3438H34.0762V21.5156H43.0293ZM58.1774 12.4375V26.2188H57.2243V12.4375H58.1774ZM55.3962 12.7969V25.4688H54.4587V18.2969H51.9743V17.4688H54.4587V12.7969H55.3962ZM50.3962 16.4219C50.3805 18.8594 51.5837 21.25 53.443 22.3281L52.8337 23.0781C51.443 22.2344 50.404 20.6719 49.9274 18.8125C49.4352 20.8125 48.3649 22.5078 46.943 23.3906L46.318 22.6562C48.193 21.5312 49.443 19 49.443 16.4219V14.9531H46.6462V14.125H53.0524V14.9531H50.3962V16.4219Z" fill="#434343"/>
</svg>
