<svg width="19" height="28" viewBox="0 0 19 28" fill="none" xmlns="http://www.w3.org/2000/svg">
<path id="Vector" d="M15.0141 0H3.0281C1.35671 0.00215942 0.00234413 1.35649 0.000185013 3.0277V24.6127C0.00234413 26.2841 1.35668 27.6385 3.02788 27.6406H15.0141C16.6855 27.6385 18.0398 26.2841 18.042 24.6129V3.02789C18.0398 1.35649 16.6855 0.00215942 15.0143 0H15.0141H15.0141ZM3.0281 26.3842C2.05029 26.3828 1.25802 25.5905 1.25657 24.6128V3.02791C1.25802 2.0501 2.05029 1.25784 3.02797 1.25638H15.0141C15.9919 1.25784 16.7842 2.0501 16.7856 3.02778V24.6127C16.7842 25.5905 15.9919 26.3828 15.0142 26.3842H15.0141H3.0281ZM12.6144 0.628203H5.41526V1.88455C5.41526 2.57846 5.97779 3.14096 6.67164 3.14096H11.4208C12.1147 3.14096 12.6772 2.57843 12.6772 1.88458V0.62823L12.6144 0.628203ZM7.82752 24.0473H10.2147V22.7909H7.82752V24.0473Z" fill="#A9A9A9"/>
</svg>
