<svg width="469" height="65" viewBox="0 0 469 65" fill="none" xmlns="http://www.w3.org/2000/svg">
<rect width="469" height="65" rx="17" fill="#FF4256"/>
<path d="M126.238 22.4258V29.6875H129.117V31.9219H126.238V42.0195H123.488V22.4258H126.238ZM120.76 24.2305V26.4434H114.315V35.0156C117.15 34.9834 119.492 34.8545 122.092 34.3926L122.393 36.6914C119.363 37.207 116.699 37.293 113.24 37.2715H111.586V24.2305H120.76ZM148.141 32.9961V35.1875H130.245V32.9961H148.141ZM146.401 39.4414V41.6328H132.501V36.2617H135.251V39.4414H146.401ZM145.971 22.877V28.2695H135.208V29.666H146.337V31.7285H132.479V26.3145H143.221V24.9824H132.436V22.877H145.971ZM170.806 23.1992V29.9453H165.5V31.707H173.062V33.8984H155.23V31.707H162.793V29.9453H157.443V23.1992H170.806ZM160.129 25.3262V27.7969H168.121V25.3262H160.129ZM165.521 35.209C165.521 37.293 167.562 39.248 171.859 39.7637L170.849 41.8691C167.637 41.4287 165.339 40.1826 164.125 38.4102C162.911 40.1826 160.612 41.4287 157.4 41.8691L156.433 39.7637C160.687 39.248 162.728 37.293 162.75 35.209V34.7793H165.521V35.209ZM178.229 23.7363V30.998C180.603 30.9658 183.181 30.7832 185.899 30.2246L186.2 32.459C183.02 33.1035 179.969 33.2754 177.155 33.2754H175.479V23.7363H178.229ZM190.196 22.4473V27.9258H192.838V30.2246H190.196V36.4766H187.446V22.4473H190.196ZM190.84 39.4414V41.6328H177.52V35.166H180.291V39.4414H190.84ZM210.509 22.4258V42.0195H207.737V22.4258H210.509ZM199.895 23.8008C202.839 23.8008 205.03 26.5078 205.03 30.7617C205.03 35.0586 202.839 37.7441 199.895 37.7441C196.888 37.7441 194.696 35.0586 194.718 30.7617C194.696 26.5078 196.888 23.8008 199.895 23.8008ZM199.895 26.2715C198.37 26.2715 197.36 27.8613 197.36 30.7617C197.36 33.6836 198.37 35.252 199.895 35.252C201.378 35.252 202.388 33.6836 202.388 30.7617C202.388 27.8613 201.378 26.2715 199.895 26.2715ZM234.957 27.3242V29.5156H229.393V31.4707H236.977V33.6621H219.102V31.4707H226.664V29.5156H221.357V22.7266H224.086V27.3242H234.957ZM227.996 34.7148C232.229 34.7148 234.785 36.0469 234.807 38.3457C234.785 40.6445 232.229 41.9766 227.996 41.9766C223.721 41.9766 221.143 40.6445 221.143 38.3457C221.143 36.0469 223.721 34.7148 227.996 34.7148ZM227.996 36.8203C225.289 36.7988 223.914 37.293 223.936 38.3457C223.914 39.3555 225.289 39.8926 227.996 39.8926C230.639 39.8926 232.035 39.3555 232.057 38.3457C232.035 37.293 230.639 36.7988 227.996 36.8203ZM249.663 23.5645V25.7559H245.774C245.795 28.0439 247.149 30.3857 250.329 31.4062L248.932 33.5332C246.762 32.835 245.269 31.4385 244.42 29.6875C243.55 31.5996 241.993 33.1143 239.715 33.8555L238.254 31.75C241.488 30.708 242.96 28.2051 243.002 25.7559H239.006V23.5645H249.663ZM254.067 22.4258V27.1738H256.71V29.4512H254.067V34.2207H251.317V22.4258H254.067ZM254.067 35.0586V41.9766H251.317V37.2285H240.897V35.0586H254.067ZM275.841 30.1816V32.3516H268.278V33.5977H273.671V38.6035H262.778V39.7852H274.187V41.8477H260.093V36.6699H270.964V35.6602H260.071V33.5977H265.528V32.3516H258.009V30.1816H275.841ZM273.585 22.9844V29.1504H260.222V22.9844H273.585ZM262.907 25.1113V27.0449H270.857V25.1113H262.907ZM300.869 37.4648V39.6992H282.973V37.4648H290.514V33.8555H284.864V23.6719H287.614V26.7012H296.143V23.6719H298.871V33.8555H293.242V37.4648H300.869ZM287.614 31.6641H296.143V28.8926H287.614V31.6641ZM318.905 22.4258V42.0195H316.177V31.707H313.018V29.4727H316.177V22.4258H318.905ZM311.923 24.0586V31.3848H305.843V35.209C308.539 35.1875 310.827 35.0908 313.341 34.6504L313.555 36.8848C310.655 37.3574 307.991 37.4648 304.725 37.4648H303.114V29.2148H309.259V26.2715H303.071V24.0586H311.923ZM337.306 22.4258V29.9238H340.077V32.1797H337.306V41.9336H334.556V22.4258H337.306ZM332.085 24.4238C332.064 30.2676 329.786 35.3379 323.212 38.5605L321.665 36.4551C326.295 34.1348 328.777 31.0195 329.292 26.6582H322.783V24.4238H332.085ZM357.769 22.4258V41.9766H354.998V22.4258H357.769ZM351.904 24.4668C351.904 30.3965 349.82 35.3164 342.838 38.625L341.398 36.4336C346.447 34.0488 348.671 30.9551 349.111 26.6152H342.451V24.4668H351.904Z" fill="white"/>
</svg>
