<svg width="19" height="24" viewBox="0 0 19 24" fill="none" xmlns="http://www.w3.org/2000/svg">
<g id="&#240;&#159;&#166;&#134; icon &#34;location&#34;">
<path id="Vector" d="M9.48422 0.640691C14.7199 0.646529 18.9626 4.88926 18.9684 10.1243V10.1249C18.9239 12.0436 18.3889 13.8284 17.4847 15.3704L17.5125 15.3191C16.6106 16.9055 15.5786 18.2746 14.3946 19.4953L14.3996 19.4902C13.0567 20.9057 11.588 22.1762 10.0031 23.2929L9.91076 23.3546L9.4842 23.6406L9.05766 23.3556C7.38042 22.1772 5.91175 20.9067 4.58095 19.5041L4.56884 19.4912C3.38977 18.2753 2.35774 16.9059 1.50837 15.4188L1.45594 15.3191C0.5795 13.8283 0.0445414 12.0436 0.000264363 10.1376L0 10.1248C0.00583751 4.88923 4.24857 0.646485 9.48365 0.640625H9.48422V0.640691ZM9.48422 21.7735C11.1914 20.5227 17.4304 15.5765 17.4304 10.1249C17.4304 5.73636 13.8728 2.17871 9.48422 2.17871C5.09564 2.17871 1.538 5.73633 1.538 10.1249C1.538 15.5837 7.77605 20.5237 9.48422 21.7736V21.7735ZM9.48422 14.7696C6.92021 14.7667 4.84245 12.6889 4.83954 10.1252V10.1249H6.3775C6.3775 11.8407 7.76845 13.2316 9.48424 13.2316C11.2 13.2316 12.5909 11.8407 12.5909 10.1249C12.5909 8.40914 11.2 7.01821 9.48422 7.01821V5.48023C12.0494 5.48023 14.1289 7.55971 14.1289 10.1249C14.1289 12.6901 12.0494 14.7696 9.48422 14.7696Z" fill="#A9A9A9"/>
</g>
</svg>
