<svg width="27" height="29" viewBox="0 0 27 29" fill="none" xmlns="http://www.w3.org/2000/svg">
<g id="&#240;&#159;&#166;&#134; icon &#34;magnifying glass bold&#34;">
<path id="Vector" d="M10.2734 2.81095e-05C15.9473 2.81095e-05 20.5469 4.90626 20.5469 10.9584C20.5469 17.0105 15.9473 21.9167 10.2735 21.9167C4.59957 21.9167 0 17.0105 0 10.9584C0.00675 4.90916 4.60231 0.00719999 10.2728 0H10.2735L10.2734 2.81095e-05ZM10.2734 19.3801C14.634 19.3801 18.1688 15.6096 18.1688 10.9584C18.1688 6.30714 14.634 2.5367 10.2734 2.5367C5.91297 2.5367 2.37811 6.30722 2.37811 10.9584C2.38351 15.6073 5.91516 19.3744 10.273 19.3801H10.2735L10.2734 19.3801ZM25.3151 28.8L15.6754 18.5139L17.3567 16.7204L27 27.0028L25.3151 28.8Z" fill="white"/>
</g>
</svg>
