<svg width="97" height="40" viewBox="0 0 97 40" fill="none" xmlns="http://www.w3.org/2000/svg">
<rect x="0.5" y="0.5" width="96" height="39" rx="19.5" fill="#FF4256" stroke="#FF4256"/>
<path d="M37.2949 14.7656C37.2949 16.6406 38.4199 18.4688 40.6074 19.2188L39.6543 20.5781C38.1309 20 37.0371 18.8984 36.4512 17.5156C35.834 19.0625 34.6855 20.2891 33.0293 20.9062L32.1074 19.5312C34.373 18.7656 35.5293 16.8125 35.5449 14.75V13.1406H37.2949V14.7656ZM43.9824 12.2812V22.7656H42.248V16.8125H39.4355V15.3906H42.248V12.2812H43.9824ZM44.2949 24.7031V26.1094H34.6699V21.625H36.4355V24.7031H44.2949ZM52.3805 13.25V14.6406H48.5055V16.0156H52.2399V17.3438H48.5055V18.8281C50.2321 18.8125 51.4274 18.7422 52.8024 18.4844L52.9899 19.8906C51.3337 20.2031 49.9587 20.25 47.7712 20.25H46.8337V13.25H52.3805ZM58.3805 12.2812V20.875H56.7243V17.2031H55.2555V20.7656H53.6305V12.5469H55.2555V15.8125H56.7243V12.2812H58.3805ZM58.3805 21.5V26.3906H56.6462V22.9062H48.7087V21.5H58.3805Z" fill="white"/>
</svg>
