<svg width="165" height="35" viewBox="0 0 165 35" fill="none" xmlns="http://www.w3.org/2000/svg">
<path d="M5.92063 26.64C5.34729 26.64 4.84729 26.5067 4.42062 26.24C3.99396 25.9733 3.62063 25.62 3.30063 25.18C2.99396 24.74 2.72063 24.2733 2.48063 23.78C2.28063 23.2733 2.08729 22.6533 1.90063 21.92C1.72729 21.1867 1.56063 20.3933 1.40063 19.54C1.25396 18.6867 1.12729 17.82 1.02063 16.94C0.913958 16.0467 0.833958 15.2 0.780625 14.4C0.727292 13.6 0.700625 12.8933 0.700625 12.28C0.700625 10.84 0.833958 9.54 1.10063 8.38C1.38063 7.20667 1.77396 6.17333 2.28063 5.28C2.80063 4.37333 3.43396 3.60667 4.18063 2.98C5.16729 2.14 6.34063 1.52667 7.70063 1.14C9.07396 0.753332 10.5873 0.559999 12.2406 0.559999C13.2806 0.559999 14.334 0.653332 15.4006 0.84C16.4673 1.02667 17.4473 1.29333 18.3406 1.64C19.234 1.97333 19.954 2.38667 20.5006 2.88C21.0473 3.36 21.3206 3.9 21.3206 4.5C21.3206 5.02 21.194 5.42667 20.9406 5.72C20.6873 6 20.334 6.2 19.8806 6.32C19.334 6.42667 18.6206 6.46667 17.7406 6.44C16.874 6.4 15.9006 6.38 14.8206 6.38C13.674 6.38 12.7406 6.51333 12.0206 6.78C11.314 7.04667 10.7673 7.41333 10.3806 7.88C10.1406 8.12 9.94729 8.41333 9.80063 8.76C9.66729 9.09333 9.56729 9.47333 9.50063 9.9C9.43396 10.3267 9.40063 10.7933 9.40063 11.3C9.40063 11.5933 9.42729 11.8533 9.48063 12.08C9.54729 12.3067 9.64063 12.5 9.76063 12.66C9.88063 12.82 10.0273 12.9467 10.2006 13.04C10.3873 13.12 10.594 13.16 10.8206 13.16C11.274 13.16 11.7806 13.1533 12.3406 13.14C12.9006 13.1133 13.454 13.0933 14.0006 13.08C14.5606 13.0667 15.074 13.0667 15.5406 13.08C16.0073 13.0933 16.3806 13.1267 16.6606 13.18C17.114 13.3 17.454 13.48 17.6806 13.72C17.9206 13.9467 18.0406 14.26 18.0406 14.66C18.0406 14.9133 17.994 15.1667 17.9006 15.42C17.8206 15.66 17.6873 15.8933 17.5006 16.12C17.2206 16.4533 16.7873 16.7133 16.2006 16.9C15.6273 17.0867 14.8406 17.2467 13.8406 17.38C12.8406 17.5133 11.5806 17.6933 10.0606 17.92C9.51396 17.9867 9.14062 18.1867 8.94063 18.52C8.75396 18.8533 8.66063 19.2867 8.66063 19.82C8.66063 20.0333 8.66729 20.32 8.68063 20.68C8.69396 21.0267 8.70729 21.4133 8.72063 21.84C8.73396 22.2533 8.74063 22.6667 8.74063 23.08C8.74063 23.4933 8.73396 23.8733 8.72063 24.22C8.70729 24.5667 8.67396 24.8333 8.62063 25.02C8.36729 25.6333 8.00063 26.0533 7.52063 26.28C7.05396 26.52 6.52063 26.64 5.92063 26.64ZM29.9256 28.32C28.8056 28.32 27.719 28.2133 26.6656 28C25.6123 27.8 24.6723 27.46 23.8456 26.98C23.019 26.5 22.359 25.8667 21.8656 25.08C21.3723 24.28 21.1256 23.3067 21.1256 22.16C21.1256 20.96 21.4256 19.9667 22.0256 19.18C22.639 18.38 23.459 17.7533 24.4856 17.3C25.5123 16.8467 26.6723 16.5267 27.9656 16.34C29.2723 16.14 30.619 16.04 32.0056 16.04C32.379 16.04 32.7523 16.0533 33.1256 16.08C33.5123 16.1067 33.8656 16.1333 34.1856 16.16C34.519 16.1733 34.7856 16.18 34.9856 16.18C35.2923 16.18 35.5056 16.1267 35.6256 16.02C35.7456 15.9133 35.8056 15.7333 35.8056 15.48C35.8056 15.1467 35.759 14.8467 35.6656 14.58C35.5856 14.3133 35.4656 14.08 35.3056 13.88C35.1456 13.6667 34.9523 13.4867 34.7256 13.34C34.339 13.0733 33.8523 12.88 33.2656 12.76C32.679 12.6267 32.0456 12.56 31.3656 12.56C30.5256 12.56 29.7323 12.6533 28.9856 12.84C28.239 13.0133 27.5256 13.1933 26.8456 13.38C26.1656 13.5533 25.499 13.64 24.8456 13.64C23.7923 13.64 22.979 13.4667 22.4056 13.12C21.8323 12.7733 21.5456 12.2333 21.5456 11.5C21.5456 10.7933 21.799 10.1667 22.3056 9.62C22.8123 9.06 23.5056 8.59333 24.3856 8.22C25.279 7.84667 26.2856 7.56667 27.4056 7.38C28.5256 7.18 29.6923 7.08 30.9056 7.08C33.3856 7.08 35.4723 7.36 37.1656 7.92C38.859 8.48 40.1456 9.41333 41.0256 10.72C41.9056 12.0267 42.3456 13.8133 42.3456 16.08C42.3456 16.64 42.319 17.1333 42.2656 17.56C42.2123 17.9867 42.1456 18.36 42.0656 18.68C41.999 18.9867 41.939 19.26 41.8856 19.5C41.8323 19.74 41.8056 19.96 41.8056 20.16C41.8056 20.52 41.9256 20.8667 42.1656 21.2C42.4056 21.5333 42.6856 21.88 43.0056 22.24C43.3256 22.5867 43.6056 22.9667 43.8456 23.38C44.0856 23.78 44.2056 24.2333 44.2056 24.74C44.2056 25.5 43.9656 26.0533 43.4856 26.4C43.0056 26.7467 42.4523 26.92 41.8256 26.92C41.319 26.92 40.9056 26.78 40.5856 26.5C40.279 26.2333 40.0056 25.9667 39.7656 25.7C39.5256 25.42 39.259 25.28 38.9656 25.28C38.7656 25.28 38.539 25.34 38.2856 25.46C38.0456 25.58 37.7523 25.76 37.4056 26C37.0056 26.28 36.479 26.6 35.8256 26.96C35.1856 27.3333 34.3856 27.6533 33.4256 27.92C32.4656 28.1867 31.299 28.32 29.9256 28.32ZM30.5456 24.02C31.159 24.02 31.7523 23.9333 32.3256 23.76C32.899 23.5733 33.419 23.32 33.8856 23C34.3656 22.6667 34.7456 22.28 35.0256 21.84C35.3056 21.3867 35.4456 20.9 35.4456 20.38C35.4456 20.0067 35.3256 19.7333 35.0856 19.56C34.8456 19.3733 34.4723 19.2533 33.9656 19.2C33.4723 19.1333 32.8456 19.1 32.0856 19.1C31.2723 19.1 30.499 19.1867 29.7656 19.36C29.0456 19.52 28.459 19.8 28.0056 20.2C27.5523 20.5867 27.3256 21.1267 27.3256 21.82C27.3256 22.3267 27.459 22.74 27.7256 23.06C28.0056 23.38 28.3856 23.62 28.8656 23.78C29.3456 23.94 29.9056 24.02 30.5456 24.02ZM52.1153 26.68C51.5553 26.68 51.0553 26.6 50.6153 26.44C50.1753 26.28 49.7886 26.0533 49.4553 25.76C49.122 25.4533 48.822 25.1 48.5553 24.7C48.2486 24.1933 47.9753 23.62 47.7353 22.98C47.5086 22.34 47.3153 21.6667 47.1553 20.96C46.9953 20.24 46.8686 19.52 46.7753 18.8C46.6953 18.0667 46.6553 17.36 46.6553 16.68C46.6553 14.4667 47.1153 12.5867 48.0353 11.04C48.9553 9.49333 50.2486 8.31333 51.9153 7.5C53.5953 6.68667 55.5686 6.28 57.8353 6.28C58.8753 6.28 59.882 6.36667 60.8553 6.54C61.842 6.7 62.722 6.95333 63.4953 7.3C64.282 7.63333 64.9086 8.05333 65.3753 8.56C65.842 9.06667 66.0753 9.66667 66.0753 10.36C66.0753 11 65.942 11.5067 65.6753 11.88C65.422 12.24 65.0886 12.4933 64.6753 12.64C64.262 12.7867 63.8286 12.86 63.3753 12.86C62.642 12.86 61.922 12.7667 61.2153 12.58C60.522 12.38 59.6753 12.28 58.6753 12.28C57.382 12.28 56.3886 12.6667 55.6953 13.44C55.0153 14.2133 54.6753 15.3133 54.6753 16.74C54.6753 17.2733 54.6953 17.8 54.7353 18.32C54.7886 18.8267 54.8553 19.3133 54.9353 19.78C55.0153 20.2467 55.0886 20.6933 55.1553 21.12C55.2353 21.5467 55.302 21.94 55.3553 22.3C55.4086 22.6467 55.4353 22.9533 55.4353 23.22C55.4353 24.3933 55.1686 25.2667 54.6353 25.84C54.102 26.4 53.262 26.68 52.1153 26.68ZM70.8113 26.52C70.0513 26.52 69.4446 26.3333 68.9913 25.96C68.5379 25.5733 68.2113 25.04 68.0113 24.36C67.8113 23.68 67.7113 22.8867 67.7113 21.98C67.7113 21.4467 67.7246 20.8733 67.7513 20.26C67.7913 19.6467 67.8446 19.02 67.9113 18.38C67.9913 17.7267 68.0913 17.08 68.2113 16.44C68.3313 15.8 68.4779 15.18 68.6513 14.58C68.8379 13.98 69.0446 13.4133 69.2713 12.88C70.0579 11.2133 71.0179 9.96667 72.1513 9.14C73.2979 8.3 74.6579 7.88 76.2313 7.88C77.2846 7.88 78.1513 8.11333 78.8313 8.58C79.5246 9.03333 80.0846 9.62667 80.5113 10.36C80.9513 11.0933 81.3113 11.8733 81.5913 12.7C81.8046 13.3267 82.0513 13.8733 82.3313 14.34C82.6246 14.8067 82.9579 15.04 83.3313 15.04C83.7713 15.04 84.1779 14.8467 84.5513 14.46C84.9246 14.0733 85.3179 13.5067 85.7313 12.76C86.2379 11.8533 86.7779 11.0467 87.3513 10.34C87.9379 9.63333 88.6246 9.08 89.4113 8.68C90.1979 8.28 91.1446 8.08 92.2513 8.08C93.8379 8.08 95.1046 8.49333 96.0513 9.32C96.9979 10.1333 97.6846 11.2533 98.1113 12.68C98.5379 14.1067 98.7513 15.7267 98.7513 17.54C98.7513 18.1133 98.7379 18.7 98.7113 19.3C98.6846 19.8867 98.6379 20.4667 98.5713 21.04C98.5179 21.6133 98.4446 22.1667 98.3513 22.7C98.2579 23.22 98.1513 23.7067 98.0313 24.16C97.7513 24.96 97.3646 25.5533 96.8713 25.94C96.3913 26.3267 95.7513 26.52 94.9513 26.52C94.2179 26.52 93.6113 26.3467 93.1313 26C92.6646 25.6533 92.3113 25.1867 92.0713 24.6C92.0179 24.36 91.9779 24.1 91.9513 23.82C91.9246 23.5267 91.9046 23.2067 91.8913 22.86C91.8779 22.5 91.8646 22.1267 91.8513 21.74C91.8379 21.34 91.8246 20.92 91.8113 20.48C91.8113 20.0267 91.8046 19.5467 91.7913 19.04C91.7513 18.3467 91.6646 17.7267 91.5313 17.18C91.4113 16.62 91.2379 16.1867 91.0113 15.88C90.7846 15.56 90.4913 15.4 90.1313 15.4C89.7579 15.4 89.4046 15.58 89.0712 15.94C88.7513 16.3 88.4379 16.7667 88.1313 17.34C87.8246 17.9133 87.5246 18.52 87.2312 19.16C86.6846 20.4133 86.1046 21.3333 85.4913 21.92C84.8913 22.4933 84.0646 22.78 83.0113 22.78C81.9446 22.78 81.1379 22.4733 80.5913 21.86C80.0446 21.2333 79.6313 20.4333 79.3513 19.46C79.1513 18.6867 78.9513 18.02 78.7513 17.46C78.5513 16.9 78.3246 16.4667 78.0713 16.16C77.8313 15.84 77.5246 15.68 77.1513 15.68C76.8179 15.68 76.4979 15.84 76.1913 16.16C75.8846 16.48 75.5979 16.9533 75.3313 17.58C75.0779 18.2467 74.8713 18.9333 74.7113 19.64C74.5513 20.3467 74.4179 21.04 74.3113 21.72C74.2179 22.4 74.1446 23.0333 74.0913 23.62C73.8913 24.6867 73.5513 25.44 73.0713 25.88C72.6046 26.3067 71.8513 26.52 70.8113 26.52ZM112.437 27.58C110.131 27.58 108.117 27.2267 106.397 26.52C104.691 25.8133 103.364 24.7333 102.417 23.28C101.471 21.8267 100.997 19.98 100.997 17.74C100.997 15.9 101.311 14.2867 101.937 12.9C102.564 11.5 103.424 10.3267 104.517 9.38C105.624 8.43333 106.904 7.72667 108.357 7.26C109.811 6.78 111.357 6.54 112.997 6.54C114.117 6.54 115.204 6.64667 116.257 6.86C117.311 7.06 118.257 7.39333 119.097 7.86C119.937 8.31333 120.604 8.91333 121.097 9.66C121.591 10.3933 121.837 11.2867 121.837 12.34C121.837 13.2733 121.657 14.0533 121.297 14.68C120.937 15.3067 120.444 15.82 119.817 16.22C119.204 16.6067 118.497 16.9133 117.697 17.14C116.911 17.3667 116.071 17.5533 115.177 17.7C114.631 17.8467 113.951 17.9867 113.137 18.12C112.324 18.24 111.524 18.3333 110.737 18.4C109.951 18.4667 109.304 18.5 108.797 18.5C108.397 18.5 108.117 18.5533 107.957 18.66C107.797 18.7533 107.717 18.9333 107.717 19.2C107.717 19.44 107.784 19.72 107.917 20.04C108.051 20.3467 108.244 20.64 108.497 20.92C108.937 21.4267 109.457 21.7667 110.057 21.94C110.671 22.1133 111.411 22.2 112.277 22.2C113.184 22.2 114.077 22.0733 114.957 21.82C115.851 21.5533 116.711 21.2933 117.537 21.04C118.377 20.7867 119.191 20.66 119.977 20.66C120.764 20.66 121.391 20.8067 121.857 21.1C122.337 21.3933 122.577 21.9667 122.577 22.82C122.577 23.5667 122.304 24.2333 121.757 24.82C121.211 25.4067 120.464 25.9067 119.517 26.32C118.584 26.7333 117.504 27.0467 116.277 27.26C115.064 27.4733 113.784 27.58 112.437 27.58ZM111.157 15.54C111.931 15.54 112.677 15.4533 113.397 15.28C114.117 15.1067 114.711 14.82 115.177 14.42C115.644 14.02 115.877 13.4867 115.877 12.82C115.877 12.0067 115.577 11.4267 114.977 11.08C114.391 10.72 113.604 10.54 112.617 10.54C112.017 10.54 111.431 10.6467 110.857 10.86C110.297 11.06 109.791 11.34 109.337 11.7C108.884 12.06 108.517 12.4733 108.237 12.94C107.971 13.4067 107.837 13.9067 107.837 14.44C107.837 14.7733 107.951 15.02 108.177 15.18C108.404 15.3267 108.764 15.4267 109.257 15.48C109.751 15.52 110.384 15.54 111.157 15.54ZM133.245 27.1C131.752 27.1 130.525 26.8333 129.565 26.3C128.605 25.78 127.852 24.9467 127.305 23.8C126.772 22.6533 126.385 21.1533 126.145 19.3C126.039 18.7267 125.945 18.0467 125.865 17.26C125.785 16.4733 125.725 15.64 125.685 14.76C125.645 13.8667 125.612 12.9933 125.585 12.14C125.559 11.2867 125.545 10.5 125.545 9.78C125.545 9.06 125.559 8.47333 125.585 8.02C125.612 6.47333 125.725 5.16 125.925 4.08C126.125 3 126.492 2.18667 127.025 1.64C127.572 1.08 128.365 0.799998 129.405 0.799998C130.672 0.799998 131.545 1.16666 132.025 1.9C132.505 2.62 132.745 3.79333 132.745 5.42C132.745 5.76667 132.732 6.21333 132.705 6.76C132.679 7.30667 132.652 7.91333 132.625 8.58C132.599 9.24667 132.565 9.94 132.525 10.66C132.499 11.38 132.465 12.0933 132.425 12.8C132.399 13.4933 132.372 14.1467 132.345 14.76C132.332 15.36 132.325 15.8867 132.325 16.34C132.325 17.5 132.372 18.4667 132.465 19.24C132.559 20.0133 132.699 20.6333 132.885 21.1C133.072 21.5533 133.299 21.88 133.565 22.08C133.845 22.2667 134.159 22.36 134.505 22.36C134.959 22.36 135.372 22.2733 135.745 22.1C136.119 21.9133 136.472 21.7267 136.805 21.54C137.152 21.3533 137.512 21.26 137.885 21.26C138.312 21.26 138.652 21.42 138.905 21.74C139.172 22.06 139.305 22.4867 139.305 23.02C139.305 23.62 139.119 24.1733 138.745 24.68C138.385 25.1733 137.905 25.6 137.305 25.96C136.705 26.32 136.045 26.6 135.325 26.8C134.619 27 133.925 27.1 133.245 27.1ZM145.012 34.24C144.146 34.24 143.446 34.0067 142.912 33.54C142.379 33.0733 142.112 32.5067 142.112 31.84C142.112 31.1333 142.339 30.52 142.792 30C143.259 29.4933 143.906 29.0733 144.732 28.74C145.359 28.4067 146.012 28.04 146.692 27.64C147.372 27.24 148.006 26.82 148.592 26.38C149.179 25.9533 149.652 25.54 150.012 25.14C150.372 24.7267 150.552 24.3533 150.552 24.02C150.552 23.74 150.346 23.4267 149.932 23.08C149.532 22.7333 148.826 22.3267 147.812 21.86C146.999 21.4733 146.212 21.0067 145.452 20.46C144.706 19.9 144.006 19.2933 143.352 18.64C142.699 17.9867 142.132 17.2933 141.652 16.56C141.172 15.8267 140.792 15.0867 140.512 14.34C140.246 13.58 140.112 12.8333 140.112 12.1C140.112 11.4467 140.266 10.8533 140.572 10.32C140.879 9.77333 141.306 9.34667 141.852 9.04C142.399 8.72 143.019 8.56 143.712 8.56C144.739 8.56 145.606 8.77333 146.312 9.2C147.019 9.61333 147.646 10.3067 148.192 11.28C148.712 12.5067 149.232 13.6467 149.752 14.7C150.272 15.74 150.812 16.6133 151.372 17.32C151.679 17.72 152.006 18.06 152.352 18.34C152.712 18.62 153.012 18.76 153.252 18.76C153.626 18.76 153.972 18.5933 154.292 18.26C154.626 17.9267 154.886 17.5533 155.072 17.14C155.592 16.2333 156.072 15.2067 156.512 14.06C156.966 12.9 157.412 11.8 157.852 10.76C158.266 10.0533 158.759 9.47333 159.332 9.02C159.919 8.55333 160.619 8.32 161.432 8.32C162.726 8.32 163.626 8.64 164.132 9.28C164.639 9.92 164.892 10.7533 164.892 11.78C164.892 12.54 164.759 13.3867 164.492 14.32C164.226 15.2533 163.866 16.2267 163.412 17.24C162.972 18.24 162.472 19.2333 161.912 20.22C161.352 21.1933 160.772 22.1133 160.172 22.98C159.586 23.8467 159.012 24.6133 158.452 25.28C157.506 26.4267 156.486 27.5333 155.392 28.6C154.299 29.68 153.172 30.6467 152.012 31.5C150.852 32.3533 149.679 33.02 148.492 33.5C147.319 33.9933 146.159 34.24 145.012 34.24Z" fill="#FF6565"/>
</svg>
