<svg width="133" height="38" viewBox="0 0 133 38" fill="none" xmlns="http://www.w3.org/2000/svg">
<rect x="0.5" y="0.5" width="132" height="37" rx="18.5" fill="#FF4257" stroke="#FF4256"/>
<path d="M37.2979 25.6484H22.7783V24.0488H29.0361V20.9551H24.3779V12.7285H26.3291V15.3301H33.6943V12.7285H35.6455V20.9551H30.9697V24.0488H37.2979V25.6484ZM33.6943 19.373V16.8945H26.3291V19.373H33.6943ZM51.6416 27.582H49.6904V19.127H46.9658V17.5273H49.6904V11.6738H51.6416V27.582ZM38.8623 13.0625H46.0518V18.8809H40.8486V22.2207C42.1553 22.2148 43.2979 22.1797 44.2764 22.1152C45.2607 22.0508 46.251 21.9277 47.2471 21.7461L47.4053 23.3457C46.2979 23.5391 45.1904 23.6709 44.083 23.7412C42.9814 23.8115 41.6807 23.8496 40.1807 23.8555H38.915V17.2988H44.1357V14.6445H38.8623V13.0625ZM70.6084 17.8789H72.9639V19.5137H70.6084V27.5293H68.6572V11.6738H70.6084V17.8789ZM58.0752 23.1875C60.0146 22.2207 61.5088 21.0576 62.5576 19.6982C63.6064 18.333 64.2275 16.748 64.4209 14.9434H58.9365V13.3262H66.4072C66.3955 18.541 63.9873 22.332 59.1826 24.6992L58.0752 23.1875ZM86.9912 27.5645H85.0225V11.6738H86.9912V27.5645ZM73.8252 23.1875C75.876 22.2148 77.4141 21.0518 78.4395 19.6982C79.4707 18.3447 80.0771 16.748 80.2588 14.9082H74.6338V13.3613H82.2451C82.2451 15.8867 81.6738 18.1016 80.5312 20.0059C79.3887 21.9102 77.4932 23.4922 74.8447 24.752L73.8252 23.1875Z" fill="white"/>
<path d="M104.412 26L111 19L104 12" stroke="white" stroke-width="2" stroke-linecap="round" stroke-linejoin="round"/>
</svg>
