<svg width="72" height="73" viewBox="0 0 72 73" fill="none" xmlns="http://www.w3.org/2000/svg">
<g filter="url(#filter0_d_1953_29)">
<circle cx="36" cy="36" r="30" fill="white"/>
</g>
<path d="M38.1957 32.3283C38.1957 27 32.3451 26.4777 30.1511 29.403C27.9571 26.4777 22.1067 26.4322 22.1064 32.3284C22.1063 36.7164 29.4199 41.8358 30.1511 41.8357C30.8826 41.8357 38.1957 36.7163 38.1957 32.3283Z" fill="#AEAEAE" stroke="#868686" stroke-width="1.7" stroke-linecap="round" stroke-linejoin="round"/>
<path d="M24.3004 23.2511C24.3004 19.5944 30.5 14.5 36.733 20.8073C36.8531 20.9288 38.1957 19.3447 39.6584 18.6133C42.0168 17.434 49.1657 17.5002 49.1657 25.4451C49.1657 32.0269 40.3897 37.8776 39.6584 37.8776" stroke="#868686" stroke-width="1.7" stroke-linecap="round"/>
<defs>
<filter id="filter0_d_1953_29" x="0" y="0.3" width="72" height="72" filterUnits="userSpaceOnUse" color-interpolation-filters="sRGB">
<feFlood flood-opacity="0" result="BackgroundImageFix"/>
<feColorMatrix in="SourceAlpha" type="matrix" values="0 0 0 0 0 0 0 0 0 0 0 0 0 0 0 0 0 0 127 0" result="hardAlpha"/>
<feOffset dy="0.3"/>
<feGaussianBlur stdDeviation="3"/>
<feComposite in2="hardAlpha" operator="out"/>
<feColorMatrix type="matrix" values="0 0 0 0 0 0 0 0 0 0 0 0 0 0 0 0 0 0 0.2 0"/>
<feBlend mode="normal" in2="BackgroundImageFix" result="effect1_dropShadow_1953_29"/>
<feBlend mode="normal" in="SourceGraphic" in2="effect1_dropShadow_1953_29" result="shape"/>
</filter>
</defs>
</svg>
