<svg width="72" height="73" viewBox="0 0 72 73" fill="none" xmlns="http://www.w3.org/2000/svg">
<g filter="url(#filter0_d_2519_10)">
<circle cx="36.0001" cy="36" r="30" fill="white"/>
</g>
<path d="M38.1958 32.3281C38.1958 26.2289 32.3452 26.4775 30.1512 29.4028C27.9572 26.4775 22.1068 26.432 22.1066 32.3282C22.1064 36.7162 29.42 41.8356 30.1512 41.8355C30.8827 41.8355 38.1958 36.7161 38.1958 32.3281Z" fill="#FF95A0" stroke="#FF4256" stroke-width="1.7" stroke-linecap="round" stroke-linejoin="round"/>
<path d="M24.3004 23.2511C24.3004 19.5944 30.5 14.5 36.733 20.8073C36.8531 20.9288 38.1957 19.3447 39.6584 18.6133C42.0168 17.434 49.1657 17.5002 49.1657 25.4451C49.1657 32.0269 40.3897 37.8776 39.6584 37.8776" stroke="#FF4256" stroke-width="1.7" stroke-linecap="round"/>
<defs>
<filter id="filter0_d_2519_10" x="0.00012207" y="0.3" width="72" height="72" filterUnits="userSpaceOnUse" color-interpolation-filters="sRGB">
<feFlood flood-opacity="0" result="BackgroundImageFix"/>
<feColorMatrix in="SourceAlpha" type="matrix" values="0 0 0 0 0 0 0 0 0 0 0 0 0 0 0 0 0 0 127 0" result="hardAlpha"/>
<feOffset dy="0.3"/>
<feGaussianBlur stdDeviation="3"/>
<feComposite in2="hardAlpha" operator="out"/>
<feColorMatrix type="matrix" values="0 0 0 0 0 0 0 0 0 0 0 0 0 0 0 0 0 0 0.2 0"/>
<feBlend mode="normal" in2="BackgroundImageFix" result="effect1_dropShadow_2519_10"/>
<feBlend mode="normal" in="SourceGraphic" in2="effect1_dropShadow_2519_10" result="shape"/>
</filter>
</defs>
</svg>
