<svg width="102" height="26" viewBox="0 0 102 26" fill="none" xmlns="http://www.w3.org/2000/svg">
<rect x="0.5" y="0.5" width="101" height="25" rx="12.5" stroke="#DFDFDF"/>
<path d="M24.0073 8.61035H22.6597V14.7261C23.3774 14.6675 24.0122 14.6064 24.564 14.543L24.6372 15.5537C23.4165 15.7588 22.1396 15.8955 20.8066 15.9639C19.4736 16.0273 18.0356 16.0615 16.4927 16.0664L16.3315 14.9092C16.6636 14.9092 17.2202 14.9043 18.0015 14.8945V8.61035H16.6538V7.46777H24.0073V8.61035ZM19.3491 14.8726C20.0034 14.8579 20.6577 14.8359 21.312 14.8066V8.61035H19.3491V14.8726ZM25.3257 6.12012H26.7173V11.291H28.8267V12.4336H26.7173V19.2451H25.3257V6.12012ZM33.4772 6.55957C34.1315 6.56445 34.7199 6.69385 35.2424 6.94775C35.7648 7.19678 36.175 7.54346 36.4729 7.98779C36.7707 8.43213 36.9196 8.9375 36.9196 9.50391C36.9196 10.0703 36.7707 10.5757 36.4729 11.02C36.175 11.4644 35.7648 11.811 35.2424 12.0601C34.7199 12.3091 34.1315 12.4336 33.4772 12.4336C32.8181 12.4336 32.2248 12.3091 31.6975 12.0601C31.175 11.811 30.7648 11.4644 30.467 11.02C30.1691 10.5757 30.0202 10.0703 30.0202 9.50391C30.0202 8.9375 30.1691 8.43213 30.467 7.98779C30.7648 7.54346 31.175 7.19678 31.6975 6.94775C32.2248 6.69385 32.8181 6.56445 33.4772 6.55957ZM31.3825 9.50391C31.3825 9.86035 31.4704 10.1753 31.6462 10.4487C31.8269 10.7173 32.0759 10.9272 32.3933 11.0786C32.7155 11.23 33.0769 11.3057 33.4772 11.3057C33.8776 11.3057 34.2365 11.23 34.5539 11.0786C34.8713 10.9272 35.1203 10.7173 35.301 10.4487C35.4816 10.1753 35.572 9.86035 35.572 9.50391C35.572 9.15234 35.4816 8.84229 35.301 8.57373C35.1203 8.30029 34.8688 8.09033 34.5466 7.94385C34.2292 7.79736 33.8728 7.72656 33.4772 7.73145C33.0769 7.72656 32.7155 7.79736 32.3933 7.94385C32.0759 8.09033 31.8269 8.30029 31.6462 8.57373C31.4704 8.84229 31.3825 9.15234 31.3825 9.50391ZM32.0124 13.4004H40.6403V16.7109H33.404V17.9707H41.0798V19.084H32.0563V15.6709H39.2634V14.5137H32.0124V13.4004ZM39.2487 6.12012H40.6403V12.7998H39.2487V6.12012ZM50.6153 6.7207C51.1866 6.71582 51.7091 6.81592 52.1827 7.021C52.6563 7.22607 53.0494 7.5166 53.3619 7.89258C53.6744 8.26367 53.8771 8.69336 53.9698 9.18164H56.5333V6.12012H57.9249V13.166H56.5333V10.3242H53.9771C53.8893 10.8223 53.6891 11.2617 53.3766 11.6426C53.0641 12.0234 52.6686 12.3188 52.19 12.5288C51.7164 12.7388 51.1915 12.8438 50.6153 12.8438C49.9513 12.8438 49.358 12.7144 48.8355 12.4556C48.3131 12.1919 47.9054 11.8281 47.6124 11.3643C47.3194 10.8955 47.1729 10.3633 47.1729 9.76758C47.1729 9.18164 47.3194 8.65674 47.6124 8.19287C47.9054 7.72412 48.3131 7.36035 48.8355 7.10156C49.3629 6.84277 49.9562 6.71582 50.6153 6.7207ZM48.506 9.76758C48.506 10.1338 48.5938 10.4634 48.7696 10.7563C48.9503 11.0444 49.1993 11.269 49.5167 11.4302C49.839 11.5913 50.2052 11.6719 50.6153 11.6719C51.0157 11.6719 51.3722 11.5913 51.6847 11.4302C52.0021 11.269 52.2486 11.0444 52.4244 10.7563C52.6051 10.4683 52.6954 10.1387 52.6954 9.76758C52.6954 9.39648 52.6051 9.06689 52.4244 8.77881C52.2486 8.49072 52.0021 8.26855 51.6847 8.1123C51.3722 7.95605 51.0157 7.87793 50.6153 7.87793C50.2052 7.87793 49.839 7.95605 49.5167 8.1123C49.1993 8.26855 48.9503 8.49072 48.7696 8.77881C48.5938 9.06689 48.506 9.39648 48.506 9.76758ZM49.3702 13.7959H50.7472V15.3193H56.5333V13.7959H57.9249V19.084H49.3702V13.7959ZM56.5333 17.9414V16.418H50.7472V17.9414H56.5333ZM72.2581 17.6777H60.2464V16.5059H65.5345V14.2061H61.7112V10.0312H69.4163V8.18555H61.6819V7.04297H70.7933V11.1445H63.0882V13.0635H71.1009V14.2061H66.9114V16.5059H72.2581V17.6777ZM84.145 13.4883H75.0044V7.29199H84.0278V8.43457H76.3813V12.3457H84.145V13.4883ZM73.5103 16.3594H85.522V17.5166H73.5103V16.3594Z" fill="#4A4A4A"/>
</svg>
